<svg width="400" height="120" viewBox="0 0 400 120" xmlns="http://www.w3.org/2000/svg">
  <defs>
    <linearGradient id="brandGradient" x1="0%" y1="0%" x2="100%" y2="100%">
      <stop offset="0%" stop-color="#2DD4BF"/>
      <stop offset="100%" stop-color="#10B981"/>
    </linearGradient>
    
    <filter id="ultraGlow" x="-30%" y="-30%" width="160%" height="160%">
      <feGaussianBlur stdDeviation="5" result="blur"/>
      <feComposite in="SourceGraphic" in2="blur" operator="over"/>
    </filter>
  </defs>

  <g transform="translate(20, 15)">
    <circle cx="45" cy="40" r="35" fill="#10B981" fill-opacity="0.08"/>
    
    <g filter="url(#ultraGlow)">
      <path d="M45 10C34.5 10 26 18.5 26 29C26 35.5 29.5 41 34.5 44.5C37.5 46.5 38.5 49 38.5 52H51.5C51.5 49 52.5 46.5 55.5 44.5C60.5 41 64 35.5 64 29C64 18.5 55.5 10 45 10Z" 
            fill="url(#brandGradient)"/>
      
      <circle cx="45" cy="29" r="7.5" fill="#FFFFFF"/>
      
      <rect x="39.5" y="54" width="11" height="4" rx="2" fill="#059669"/>
      <rect x="41.5" y="60" width="7" height="4" rx="2" fill="#047857"/>
    </g>
  </g>

  <g transform="translate(105, 68)">
    <text x="0" y="0" font-family="'Inter', sans-serif" font-size="48" font-weight="950" fill="#F8FAFC" letter-spacing="-0.08em">
      Insight
    </text>
    
    <text x="130" y="0" font-family="'Inter', sans-serif" font-size="48" font-weight="950" fill="url(#brandGradient)" letter-spacing="-0.08em">
      Hub
    </text>

    <rect x="130" y="12" width="85" height="6" rx="3" fill="url(#brandGradient)" fill-opacity="0.4"/>
  </g>
</svg>
